<?xml version="1.0" encoding="UTF-8"?>
<svg xmlns="http://www.w3.org/2000/svg" viewBox="0 0 1280 720" width="1280" height="720" role="img" aria-label="Abstract network illustrating Nadara Digital transformation">
  <defs>
    <linearGradient id="grad-bg" x1="0" y1="0" x2="1" y2="1">
      <stop offset="0%" stop-color="#0b1324"/>
      <stop offset="100%" stop-color="#0e1a2f"/>
    </linearGradient>
    <radialGradient id="glow" cx="75%" cy="25%" r="0.8">
      <stop offset="0%" stop-color="rgba(104,211,145,0.35)"/>
      <stop offset="60%" stop-color="rgba(79,209,199,0.15)"/>
      <stop offset="100%" stop-color="rgba(0,0,0,0)"/>
    </radialGradient>
    <linearGradient id="node" x1="0" y1="0" x2="1" y2="1">
      <stop offset="0%" stop-color="#68d391"/>
      <stop offset="100%" stop-color="#4fd1c5"/>
    </linearGradient>
    <filter id="softGlow" x="-20%" y="-20%" width="140%" height="140%">
      <feGaussianBlur stdDeviation="6" result="blur"/>
      <feMerge>
        <feMergeNode in="blur"/>
        <feMergeNode in="SourceGraphic"/>
      </feMerge>
    </filter>
  </defs>

  <rect width="100%" height="100%" fill="url(#grad-bg)"/>
  <rect width="100%" height="100%" fill="url(#glow)"/>

  <!-- Grid -->
  <g opacity="0.18">
    <g stroke="#1f2a44" stroke-width="1">
      <path d="M0 120 H1280"/>
      <path d="M0 240 H1280"/>
      <path d="M0 360 H1280"/>
      <path d="M0 480 H1280"/>
      <path d="M0 600 H1280"/>
      <path d="M160 0 V720"/>
      <path d="M320 0 V720"/>
      <path d="M480 0 V720"/>
      <path d="M640 0 V720"/>
      <path d="M800 0 V720"/>
      <path d="M960 0 V720"/>
      <path d="M1120 0 V720"/>
    </g>
  </g>

  <!-- Connections -->
  <g stroke="url(#node)" stroke-width="2" opacity="0.75" filter="url(#softGlow)">
    <path d="M220 500 C 360 440, 520 460, 660 400 S 980 320, 1120 420" fill="none"/>
    <path d="M220 380 C 340 340, 520 300, 720 340 S 1020 420, 1080 320" fill="none" opacity="0.6"/>
    <path d="M180 300 C 300 280, 520 220, 740 240 S 980 300, 1160 260" fill="none" opacity="0.4"/>
  </g>

  <!-- Nodes -->
  <g fill="url(#node)" filter="url(#softGlow)">
    <circle cx="220" cy="500" r="8"/>
    <circle cx="420" cy="450" r="7"/>
    <circle cx="660" cy="400" r="9"/>
    <circle cx="820" cy="360" r="7"/>
    <circle cx="980" cy="330" r="8"/>
    <circle cx="1120" cy="420" r="10"/>
  </g>

  <!-- Decorative shapes -->
  <g opacity="0.85">
    <rect x="120" y="120" width="120" height="120" rx="16" ry="16" fill="none" stroke="url(#node)" stroke-width="2"/>
    <circle cx="320" cy="190" r="30" fill="none" stroke="url(#node)" stroke-width="2"/>
    <path d="M480 160 h120 a24 24 0 0 1 24 24 v48 a24 24 0 0 1 -24 24 h-120 a24 24 0 0 1 -24 -24 v-48 a24 24 0 0 1 24 -24 z" fill="none" stroke="url(#node)" stroke-width="2"/>
  </g>

  <!-- Title accent -->
  <g opacity="0.6">
    <path d="M80 640 H600" stroke="url(#node)" stroke-width="4"/>
    <path d="M80 660 H520" stroke="url(#node)" stroke-width="2"/>
  </g>
</svg>