<svg xmlns="http://www.w3.org/2000/svg" viewBox="0 0 1280 720" role="img" aria-label="Enterprise system integration illustration">
  <defs>
    <linearGradient id="g" x1="0" y1="0" x2="1" y2="1">
      <stop offset="0%" stop-color="#68d391"/>
      <stop offset="100%" stop-color="#4fd1c7"/>
    </linearGradient>
    <radialGradient id="glow" cx="0.7" cy="0.3" r="0.6">
      <stop offset="0%" stop-color="#ffffff" stop-opacity="0.35"/>
      <stop offset="100%" stop-color="#ffffff" stop-opacity="0"/>
    </radialGradient>
  </defs>
  <rect width="1280" height="720" fill="#0b1220"/>
  <rect x="24" y="24" width="1232" height="672" rx="28" fill="url(#g)" opacity="0.12"/>
  <circle cx="980" cy="200" r="300" fill="url(#glow)"/>
  <g opacity="0.5" stroke="url(#g)" stroke-width="2" fill="none">
    <path d="M100 610 C 320 520, 520 700, 740 610 S 1120 520, 1200 580"/>
    <path d="M100 560 C 320 470, 520 650, 740 560 S 1120 470, 1200 530" opacity="0.6"/>
  </g>
  <g transform="translate(410,210)">
    <rect x="0" y="0" width="460" height="320" rx="24" fill="#0b1220" opacity="0.9" stroke="url(#g)"/>
    <g fill="#68d391">
      <rect x="40" y="70" width="120" height="140" rx="12" opacity="0.65"/>
      <rect x="200" y="40" width="140" height="200" rx="12" opacity="0.85"/>
      <rect x="370" y="90" width="60" height="150" rx="12" opacity="0.75"/>
    </g>
    <g fill="#4fd1c7" opacity="0.8">
      <circle cx="110" cy="250" r="6"/>
      <circle cx="270" cy="250" r="6"/>
      <circle cx="430" cy="250" r="6"/>
    </g>
  </g>
</svg>