<svg xmlns="http://www.w3.org/2000/svg" viewBox="0 0 1280 720" role="img" aria-label="Cloud migration strategy illustration">
  <defs>
    <linearGradient id="g2" x1="0" y1="0" x2="1" y2="1">
      <stop offset="0%" stop-color="#4fd1c7"/>
      <stop offset="100%" stop-color="#68d391"/>
    </linearGradient>
    <radialGradient id="glow2" cx="0.3" cy="0.4" r="0.6">
      <stop offset="0%" stop-color="#ffffff" stop-opacity="0.3"/>
      <stop offset="100%" stop-color="#ffffff" stop-opacity="0"/>
    </radialGradient>
  </defs>
  <rect width="1280" height="720" fill="#0b1220"/>
  <rect x="24" y="24" width="1232" height="672" rx="28" fill="url(#g2)" opacity="0.12"/>
  <circle cx="340" cy="180" r="280" fill="url(#glow2)"/>
  <g fill="none" stroke="url(#g2)" opacity="0.55">
    <path d="M140 540 C 240 470, 360 630, 540 560 S 820 470, 1040 560" stroke-width="2"/>
    <path d="M160 580 C 260 510, 380 670, 560 600 S 840 510, 1060 600" stroke-width="1.5" opacity="0.6"/>
  </g>
  <g transform="translate(350,220)">
    <path d="M160 60c0-33.1 26.9-60 60-60 26.2 0 48.3 16.9 56 40 5.2-2 10.9-3 16.8-3 24.9 0 45 20.1 45 45 0 4.1-.6 8-1.7 11.7H215c-30.4 0-55-24.6-55-55z" fill="#4fd1c7" opacity="0.85"/>
    <rect x="80" y="170" width="360" height="160" rx="18" fill="#0b1220" stroke="url(#g2)"/>
    <rect x="110" y="200" width="140" height="20" rx="10" fill="#68d391" opacity="0.8"/>
    <rect x="110" y="240" width="260" height="14" rx="7" fill="#4fd1c7" opacity="0.7"/>
    <rect x="110" y="265" width="300" height="14" rx="7" fill="#4fd1c7" opacity="0.6"/>
  </g>
</svg>